<svg width="356" height="64" viewBox="0 0 356 64" fill="none" xmlns="http://www.w3.org/2000/svg">
<path d="M36.3184 29.3467V45.9902C35.6318 46.751 34.5742 47.5674 33.1455 48.4395C31.7354 49.293 29.9541 50.0259 27.8018 50.6382C25.6494 51.2505 23.1167 51.5566 20.2036 51.5566C17.5132 51.5566 15.0732 51.1299 12.8838 50.2764C10.6943 49.4043 8.81104 48.1333 7.23389 46.4634C5.67529 44.7749 4.46924 42.7153 3.61572 40.2847C2.78076 37.8354 2.36328 35.0337 2.36328 31.8794V29.625C2.36328 26.4707 2.79004 23.6689 3.64355 21.2197C4.49707 18.7705 5.69385 16.7109 7.23389 15.041C8.79248 13.3525 10.6201 12.0723 12.7168 11.2002C14.832 10.3281 17.1514 9.89209 19.6748 9.89209C23.4043 9.89209 26.438 10.4858 28.7759 11.6733C31.1138 12.8423 32.8857 14.4658 34.0918 16.5439C35.2979 18.6035 36.0308 20.9878 36.2905 23.6968H26.9111C26.7256 22.3608 26.373 21.229 25.8535 20.3013C25.3525 19.355 24.6289 18.6406 23.6826 18.1582C22.7363 17.6572 21.5117 17.4067 20.0088 17.4067C18.8398 17.4067 17.7729 17.6572 16.8081 18.1582C15.8618 18.6592 15.0547 19.4199 14.3867 20.4404C13.7188 21.4424 13.1992 22.7041 12.8281 24.2256C12.4756 25.7471 12.2993 27.5283 12.2993 29.5693V31.8794C12.2993 33.9019 12.4663 35.6738 12.8003 37.1953C13.1528 38.7168 13.6724 39.9878 14.3589 41.0083C15.064 42.0103 15.9546 42.771 17.0308 43.2905C18.1255 43.7915 19.415 44.042 20.8994 44.042C21.9385 44.042 22.8291 43.9585 23.5713 43.7915C24.3135 43.606 24.9258 43.3833 25.4082 43.1235C25.9092 42.8452 26.2896 42.5854 26.5493 42.3442V36.0542H19.7583V29.3467H36.3184ZM51.2368 8.25V51H41.8296V8.25H51.2368ZM55.6069 36.249V35.6646C55.6069 33.4565 55.9224 31.4248 56.5532 29.5693C57.1841 27.6953 58.1118 26.0718 59.3364 24.6987C60.561 23.3257 62.0732 22.2588 63.873 21.498C65.6729 20.7188 67.751 20.3291 70.1074 20.3291C72.4824 20.3291 74.5698 20.7188 76.3696 21.498C78.188 22.2588 79.7095 23.3257 80.9341 24.6987C82.1587 26.0718 83.0864 27.6953 83.7173 29.5693C84.3481 31.4248 84.6636 33.4565 84.6636 35.6646V36.249C84.6636 38.4385 84.3481 40.4702 83.7173 42.3442C83.0864 44.1997 82.1587 45.8232 80.9341 47.2148C79.7095 48.5879 78.1973 49.6548 76.3975 50.4155C74.5977 51.1763 72.5195 51.5566 70.1631 51.5566C67.8066 51.5566 65.7192 51.1763 63.9009 50.4155C62.0825 49.6548 60.561 48.5879 59.3364 47.2148C58.1118 45.8232 57.1841 44.1997 56.5532 42.3442C55.9224 40.4702 55.6069 38.4385 55.6069 36.249ZM64.9863 35.6646V36.249C64.9863 37.3809 65.0698 38.4385 65.2368 39.4219C65.4038 40.4053 65.6821 41.2681 66.0718 42.0103C66.4614 42.7339 66.9902 43.2998 67.6582 43.708C68.3262 44.1162 69.1611 44.3203 70.1631 44.3203C71.1465 44.3203 71.9629 44.1162 72.6123 43.708C73.2803 43.2998 73.8091 42.7339 74.1987 42.0103C74.5884 41.2681 74.8667 40.4053 75.0337 39.4219C75.2007 38.4385 75.2842 37.3809 75.2842 36.249V35.6646C75.2842 34.5698 75.2007 33.54 75.0337 32.5752C74.8667 31.5918 74.5884 30.729 74.1987 29.9868C73.8091 29.2261 73.2803 28.6323 72.6123 28.2056C71.9443 27.7788 71.1094 27.5654 70.1074 27.5654C69.124 27.5654 68.2983 27.7788 67.6304 28.2056C66.981 28.6323 66.4614 29.2261 66.0718 29.9868C65.6821 30.729 65.4038 31.5918 65.2368 32.5752C65.0698 33.54 64.9863 34.5698 64.9863 35.6646ZM97.7451 42.0381L103.312 20.8857H109.184L107.097 31.4897L101.586 51H96.8823L97.7451 42.0381ZM95.5464 20.8857L98.9976 41.8711L99.3872 51H93.6816L86.5566 20.8857H95.5464ZM114.138 41.4258L117.617 20.8857H126.607L119.538 51H113.832L114.138 41.4258ZM109.852 20.8857L115.474 41.9824L116.337 51H111.578L106.178 31.5454L104.174 20.8857H109.852Z" fill="#65558F"/>
<path d="M153.243 37.2788H162.984C162.854 40.0991 162.093 42.5854 160.702 44.7378C159.31 46.8901 157.38 48.5693 154.913 49.7754C152.463 50.9629 149.569 51.5566 146.229 51.5566C143.52 51.5566 141.099 51.1021 138.965 50.1929C136.85 49.2837 135.05 47.9756 133.565 46.2686C132.1 44.5615 130.977 42.4927 130.198 40.062C129.437 37.6313 129.057 34.8945 129.057 31.8516V29.6528C129.057 26.6099 129.456 23.873 130.253 21.4424C131.07 18.9932 132.22 16.915 133.705 15.208C135.208 13.4824 137.007 12.165 139.104 11.2559C141.201 10.3467 143.529 9.89209 146.09 9.89209C149.615 9.89209 152.593 10.5229 155.024 11.7847C157.455 13.0464 159.338 14.7813 160.674 16.9893C162.01 19.1787 162.798 21.6743 163.04 24.4761H153.298C153.261 22.9546 153.001 21.6836 152.519 20.6631C152.037 19.624 151.276 18.8447 150.237 18.3252C149.198 17.8057 147.815 17.5459 146.09 17.5459C144.884 17.5459 143.835 17.7686 142.945 18.2139C142.054 18.6592 141.312 19.3643 140.718 20.3291C140.125 21.2939 139.679 22.5464 139.382 24.0864C139.104 25.6079 138.965 27.4448 138.965 29.5972V31.8516C138.965 34.0039 139.095 35.8408 139.354 37.3623C139.614 38.8838 140.032 40.127 140.607 41.0918C141.182 42.0566 141.924 42.771 142.833 43.2349C143.761 43.6802 144.893 43.9028 146.229 43.9028C147.713 43.9028 148.966 43.6709 149.986 43.207C151.007 42.7246 151.795 42.001 152.352 41.0361C152.909 40.0527 153.206 38.8003 153.243 37.2788ZM182.55 43.4297V31.0166C182.55 30.1631 182.43 29.4302 182.188 28.8179C181.947 28.2056 181.567 27.7324 181.047 27.3984C180.528 27.0459 179.832 26.8696 178.96 26.8696C178.255 26.8696 177.652 26.9902 177.151 27.2314C176.65 27.4727 176.27 27.8345 176.01 28.3169C175.75 28.7993 175.62 29.4116 175.62 30.1538H166.241C166.241 28.7622 166.547 27.4727 167.159 26.2852C167.79 25.0791 168.681 24.0308 169.831 23.1401C171 22.2495 172.392 21.563 174.006 21.0806C175.639 20.5796 177.457 20.3291 179.461 20.3291C181.854 20.3291 183.988 20.728 185.862 21.5259C187.755 22.3237 189.249 23.5205 190.343 25.1162C191.438 26.6934 191.985 28.6787 191.985 31.0723V43.4019C191.985 45.3687 192.097 46.8623 192.319 47.8828C192.542 48.8848 192.857 49.7661 193.266 50.5269V51H183.858C183.413 50.0723 183.079 48.9404 182.856 47.6045C182.652 46.25 182.55 44.8584 182.55 43.4297ZM183.691 32.603L183.747 37.6128H179.6C178.728 37.6128 177.986 37.7334 177.374 37.9746C176.78 38.2158 176.297 38.5498 175.926 38.9766C175.574 39.3848 175.314 39.8486 175.147 40.3682C174.999 40.8877 174.924 41.4351 174.924 42.0103C174.924 42.5669 175.054 43.0679 175.314 43.5132C175.592 43.9399 175.963 44.2739 176.427 44.5151C176.891 44.7563 177.411 44.877 177.986 44.877C179.025 44.877 179.906 44.6821 180.63 44.2925C181.372 43.8843 181.938 43.3926 182.328 42.8174C182.717 42.2422 182.912 41.7041 182.912 41.2031L184.972 45.0439C184.601 45.7861 184.174 46.5376 183.691 47.2983C183.228 48.0591 182.643 48.7642 181.938 49.4136C181.251 50.0444 180.407 50.564 179.405 50.9722C178.403 51.3618 177.188 51.5566 175.759 51.5566C173.904 51.5566 172.197 51.1763 170.638 50.4155C169.098 49.6548 167.864 48.5972 166.937 47.2427C166.009 45.8696 165.545 44.2925 165.545 42.5112C165.545 40.9526 165.823 39.561 166.38 38.3364C166.955 37.1118 167.818 36.0728 168.968 35.2192C170.119 34.3657 171.584 33.7163 173.366 33.271C175.147 32.8257 177.244 32.603 179.656 32.603H183.691ZM206.848 8.25V51H197.441V8.25H206.848ZM226.971 51.5566C224.522 51.5566 222.333 51.1763 220.403 50.4155C218.473 49.6362 216.84 48.5693 215.504 47.2148C214.187 45.8604 213.176 44.3018 212.471 42.5391C211.784 40.7764 211.441 38.9116 211.441 36.9448V35.8872C211.441 33.6792 211.747 31.6382 212.359 29.7642C212.972 27.8716 213.881 26.2202 215.087 24.8101C216.293 23.3999 217.805 22.3052 219.624 21.5259C221.442 20.728 223.557 20.3291 225.969 20.3291C228.103 20.3291 230.014 20.6724 231.703 21.3589C233.391 22.0454 234.82 23.0288 235.989 24.3091C237.176 25.5894 238.076 27.1387 238.688 28.957C239.319 30.7754 239.635 32.8164 239.635 35.0801V38.8931H215.031V33.0205H230.478V32.2969C230.497 31.2949 230.32 30.4414 229.949 29.7363C229.597 29.0312 229.077 28.4932 228.391 28.1221C227.704 27.751 226.869 27.5654 225.886 27.5654C224.865 27.5654 224.021 27.7881 223.353 28.2334C222.704 28.6787 222.193 29.291 221.822 30.0703C221.47 30.8311 221.219 31.7124 221.071 32.7144C220.922 33.7163 220.848 34.7739 220.848 35.8872V36.9448C220.848 38.0581 220.997 39.0693 221.293 39.9785C221.609 40.8877 222.054 41.667 222.629 42.3164C223.223 42.9473 223.928 43.439 224.745 43.7915C225.58 44.144 226.526 44.3203 227.583 44.3203C228.864 44.3203 230.125 44.0791 231.369 43.5967C232.612 43.1143 233.679 42.3164 234.569 41.2031L238.828 46.2686C238.215 47.1406 237.343 47.9849 236.211 48.8013C235.098 49.6177 233.762 50.2856 232.204 50.8052C230.645 51.3062 228.901 51.5566 226.971 51.5566ZM252.41 27.3149V51H243.031V20.8857H251.826L252.41 27.3149ZM251.297 34.9131L249.098 34.9688C249.098 32.668 249.376 30.6177 249.933 28.8179C250.49 26.9995 251.278 25.4595 252.299 24.1978C253.319 22.936 254.535 21.9805 255.945 21.3311C257.374 20.6631 258.96 20.3291 260.704 20.3291C262.096 20.3291 263.367 20.5332 264.517 20.9414C265.686 21.3496 266.688 22.0083 267.523 22.9175C268.376 23.8267 269.026 25.0327 269.471 26.5356C269.935 28.02 270.167 29.8569 270.167 32.0464V51H260.732V32.0186C260.732 30.8125 260.565 29.894 260.231 29.2632C259.897 28.6138 259.415 28.1685 258.784 27.9272C258.153 27.686 257.383 27.5654 256.474 27.5654C255.509 27.5654 254.692 27.751 254.024 28.1221C253.356 28.4932 252.818 29.0127 252.41 29.6807C252.021 30.3301 251.733 31.1001 251.547 31.9907C251.38 32.8813 251.297 33.8555 251.297 34.9131ZM292.433 44.0977V8.25H301.868V51H293.407L292.433 44.0977ZM273.953 36.3047V35.7202C273.953 33.438 274.203 31.3599 274.704 29.4858C275.205 27.5933 275.947 25.9697 276.931 24.6152C277.914 23.2422 279.139 22.1846 280.604 21.4424C282.07 20.7002 283.759 20.3291 285.67 20.3291C287.377 20.3291 288.871 20.728 290.151 21.5259C291.431 22.3052 292.526 23.3999 293.435 24.8101C294.344 26.2202 295.086 27.8716 295.662 29.7642C296.237 31.6382 296.673 33.6606 296.97 35.8315V36.5273C296.673 38.5684 296.237 40.498 295.662 42.3164C295.086 44.1162 294.344 45.7119 293.435 47.1035C292.526 48.4951 291.422 49.5898 290.123 50.3877C288.843 51.167 287.34 51.5566 285.614 51.5566C283.703 51.5566 282.015 51.1763 280.549 50.4155C279.102 49.6548 277.886 48.5879 276.903 47.2148C275.938 45.8418 275.205 44.2275 274.704 42.3721C274.203 40.5166 273.953 38.4941 273.953 36.3047ZM283.332 35.7202V36.3047C283.332 37.4365 283.406 38.4849 283.555 39.4497C283.703 40.4146 283.954 41.2681 284.306 42.0103C284.677 42.7339 285.16 43.2998 285.753 43.708C286.366 44.1162 287.117 44.3203 288.008 44.3203C289.214 44.3203 290.207 44.0327 290.986 43.4575C291.784 42.8823 292.368 42.0659 292.739 41.0083C293.129 39.9507 293.296 38.7075 293.24 37.2788V35.0801C293.277 33.8555 293.194 32.7793 292.99 31.8516C292.786 30.9053 292.461 30.1167 292.016 29.4858C291.589 28.855 291.042 28.3818 290.374 28.0664C289.724 27.7324 288.954 27.5654 288.063 27.5654C287.191 27.5654 286.449 27.7695 285.837 28.1777C285.243 28.5859 284.761 29.1611 284.39 29.9033C284.019 30.627 283.75 31.4897 283.583 32.4917C283.416 33.4751 283.332 34.5513 283.332 35.7202ZM322.576 43.4297V31.0166C322.576 30.1631 322.455 29.4302 322.214 28.8179C321.973 28.2056 321.592 27.7324 321.073 27.3984C320.553 27.0459 319.857 26.8696 318.985 26.8696C318.28 26.8696 317.677 26.9902 317.176 27.2314C316.675 27.4727 316.295 27.8345 316.035 28.3169C315.775 28.7993 315.646 29.4116 315.646 30.1538H306.266C306.266 28.7622 306.572 27.4727 307.185 26.2852C307.815 25.0791 308.706 24.0308 309.856 23.1401C311.025 22.2495 312.417 21.563 314.031 21.0806C315.664 20.5796 317.482 20.3291 319.486 20.3291C321.88 20.3291 324.014 20.728 325.888 21.5259C327.78 22.3237 329.274 23.5205 330.369 25.1162C331.463 26.6934 332.011 28.6787 332.011 31.0723V43.4019C332.011 45.3687 332.122 46.8623 332.345 47.8828C332.567 48.8848 332.883 49.7661 333.291 50.5269V51H323.884C323.438 50.0723 323.104 48.9404 322.882 47.6045C322.678 46.25 322.576 44.8584 322.576 43.4297ZM323.717 32.603L323.772 37.6128H319.625C318.753 37.6128 318.011 37.7334 317.399 37.9746C316.805 38.2158 316.323 38.5498 315.952 38.9766C315.599 39.3848 315.339 39.8486 315.172 40.3682C315.024 40.8877 314.95 41.4351 314.95 42.0103C314.95 42.5669 315.08 43.0679 315.339 43.5132C315.618 43.9399 315.989 44.2739 316.453 44.5151C316.917 44.7563 317.436 44.877 318.011 44.877C319.05 44.877 319.932 44.6821 320.655 44.2925C321.397 43.8843 321.963 43.3926 322.353 42.8174C322.743 42.2422 322.938 41.7041 322.938 41.2031L324.997 45.0439C324.626 45.7861 324.199 46.5376 323.717 47.2983C323.253 48.0591 322.668 48.7642 321.963 49.4136C321.277 50.0444 320.433 50.564 319.431 50.9722C318.429 51.3618 317.213 51.5566 315.785 51.5566C313.929 51.5566 312.222 51.1763 310.664 50.4155C309.124 49.6548 307.89 48.5972 306.962 47.2427C306.034 45.8696 305.57 44.2925 305.57 42.5112C305.57 40.9526 305.849 39.561 306.405 38.3364C306.98 37.1118 307.843 36.0728 308.994 35.2192C310.144 34.3657 311.61 33.7163 313.391 33.271C315.172 32.8257 317.269 32.603 319.681 32.603H323.717ZM346.428 28.3447V51H337.049V20.8857H345.816L346.428 28.3447ZM355.334 20.6631L355.167 29.3745C354.796 29.3374 354.295 29.291 353.665 29.2354C353.034 29.1797 352.505 29.1519 352.078 29.1519C350.983 29.1519 350.037 29.2817 349.239 29.5415C348.46 29.7827 347.811 30.1538 347.291 30.6548C346.79 31.1372 346.419 31.7495 346.178 32.4917C345.955 33.2339 345.853 34.0967 345.872 35.0801L344.174 33.9668C344.174 31.9443 344.369 30.1074 344.758 28.4561C345.167 26.7861 345.742 25.3481 346.484 24.1421C347.226 22.9175 348.126 21.9805 349.184 21.3311C350.241 20.6631 351.429 20.3291 352.746 20.3291C353.21 20.3291 353.665 20.3569 354.11 20.4126C354.574 20.4683 354.982 20.5518 355.334 20.6631Z" fill="#1D1B20"/>
</svg>
